<svg xmlns="http://www.w3.org/2000/svg" viewBox="0 0 24 24" fill="currentColor">
  <!-- Central fuselage -->
  <path d="M12 3 L14 7 L14 14 L13 16 L12 18 L11 16 L10 14 L10 7 Z" />
  <!-- Port engine nacelle -->
  <path d="M10 9 L7 11 L6 14 L7 15 L8 14 L10 12 Z" />
  <!-- Starboard engine nacelle -->
  <path d="M14 9 L17 11 L18 14 L17 15 L16 14 L14 12 Z" />
  <!-- Port tail wing -->
  <path d="M10 14 L5 17 L6 18 L10 16 Z" />
  <!-- Starboard tail wing -->
  <path d="M14 14 L19 17 L18 18 L14 16 Z" />
  <!-- Engine glow (aft) -->
  <path d="M11 18 L12 21 L13 18 Z" />
</svg>
